<svg xmlns="http://www.w3.org/2000/svg" width="29.379" height="30.13" viewBox="0 0 29.379 30.13">
  <g id="lineart" transform="translate(-23.579 -636.037)">
    <path id="lineart-2" data-name="lineart" d="M25.533,28.129H0l.884-3.535a6.373,6.373,0,0,1,3.339-4.162l2.443-1.221a3.194,3.194,0,0,0,1.669-2.083l.493-1.972c.59.736-2.445-4.452-2.445-6.976v-.8a6.384,6.384,0,0,1,12.767,0v.8c0,2.525-1.842,5.732-2.736,6.976l.684,1.972a3.343,3.343,0,0,0,1.769,2.083l2.443,1.221a6.373,6.373,0,0,1,3.339,4.162l.884,3.534Z" transform="translate(25.5 636.537)" fill="none" stroke="#4d4d4e" stroke-linecap="round" stroke-width="3"/>
  </g>
</svg>
