<?xml version="1.0" encoding="UTF-8" standalone="no"?>
<!-- Created with Inkscape (http://www.inkscape.org/) -->

<svg
   xmlns:dc="http://purl.org/dc/elements/1.1/"
   xmlns:cc="http://creativecommons.org/ns#"
   xmlns:rdf="http://www.w3.org/1999/02/22-rdf-syntax-ns#"
   xmlns:svg="http://www.w3.org/2000/svg"
   xmlns="http://www.w3.org/2000/svg"
   xmlns:sodipodi="http://sodipodi.sourceforge.net/DTD/sodipodi-0.dtd"
   xmlns:inkscape="http://www.inkscape.org/namespaces/inkscape"
   version="1.1"
   id="svg2"
   width="1936.3528"
   height="1376.9463"
   viewBox="0 0 1936.3528 1376.9463"
   sodipodi:docname="citroen.svg"
   inkscape:version="0.92.4 (5da689c313, 2019-01-14)">
  <metadata
     id="metadata8">
    <rdf:RDF>
      <cc:Work
         rdf:about="">
        <dc:format>image/svg+xml</dc:format>
        <dc:type
           rdf:resource="http://purl.org/dc/dcmitype/StillImage" />
        <dc:title></dc:title>
      </cc:Work>
    </rdf:RDF>
  </metadata>
  <defs
     id="defs6" />
  <sodipodi:namedview
     pagecolor="#ffffff"
     bordercolor="#666666"
     borderopacity="1"
     objecttolerance="10"
     gridtolerance="10"
     guidetolerance="10"
     inkscape:pageopacity="0"
     inkscape:pageshadow="2"
     inkscape:window-width="1920"
     inkscape:window-height="1001"
     id="namedview4"
     showgrid="false"
     inkscape:pagecheckerboard="false"
     fit-margin-top="0"
     fit-margin-left="0"
     fit-margin-right="0"
     fit-margin-bottom="0"
     inkscape:zoom="0.125"
     inkscape:cx="892.25154"
     inkscape:cy="-98.913582"
     inkscape:window-x="-9"
     inkscape:window-y="-9"
     inkscape:window-maximized="1"
     inkscape:current-layer="svg2" />
  <path
     style="fill:#6c6c6c;fill-opacity:1;stroke:#6c6c6c;stroke-width:1.29545236;stroke-opacity:1"
     d="m 101.60015,1375.6381 c -29.748829,-2.5219 -50.940132,-10.5948 -71.046081,-27.0654 -13.372096,-10.9544 -26.2018304,-33.5318 -28.8308468,-50.736 -4.2307559,-27.6857 3.9757407,-51.7924 24.7174088,-72.6078 16.106363,-16.1636 31.443867,-24.522 53.518287,-29.1655 16.548728,-3.4811 58.798842,-4.8807 101.311532,-3.3561 45.60994,1.6357 51.8005,2.789 74.13727,13.8126 12.13218,5.9874 16.23575,8.8396 24.72474,17.1854 15.246,14.9888 22.71418,27.364 18.22795,30.2052 -0.98704,0.6252 -15.92681,1.1455 -33.19936,1.1565 l -31.40473,0.02 -3.54336,-4.2102 c -14.57587,-17.3188 -27.63204,-26.3341 -43.89411,-30.3088 -10.6876,-2.6124 -49.67384,-3.0365 -62.04828,-0.6752 -20.72614,3.9551 -40.287933,19.1719 -49.45127,38.4674 -4.16286,8.7657 -4.787378,11.4085 -5.322523,22.5209 -0.689875,14.327 1.223056,23.0472 7.758069,35.3651 8.756422,16.5053 30.262844,30.7854 50.254424,33.3688 12.59285,1.6272 42.25825,1.6363 53.46182,0.017 16.77165,-2.4252 33.03851,-12.2641 45.74446,-27.6681 l 7.07778,-8.5808 30.0908,0.017 c 16.54988,0.01 31.40236,0.3693 33.00548,0.7989 1.8739,0.5021 2.91042,1.768 2.90262,3.5448 -0.0393,9.0311 -22.32025,34.184 -37.98714,42.8842 -11.33157,6.2928 -28.57034,11.8275 -42.43688,13.625 -13.60356,1.7633 -101.15917,2.7933 -117.76806,1.3854 z"
     id="path118"
     inkscape:connector-curvature="0" />
  <path
     style="fill:#6c6c6c;fill-opacity:1;stroke:#6c6c6c;stroke-width:1.29545236;stroke-opacity:1"
     d="m 344.17365,1371.0779 -2.91479,-2.1383 v -82.7744 c 0,-60.0566 0.41267,-83.6802 1.50338,-86.0742 l 1.50338,-3.2996 h 31.32277 31.32268 l 1.50338,3.2996 c 1.71763,3.7698 2.18581,167.2123 0.48659,169.8845 -0.6818,1.0723 -10.16933,1.7941 -31.39486,2.3886 -27.08855,0.7588 -30.7368,0.618 -33.33253,-1.2862 z"
     id="path120"
     inkscape:connector-curvature="0" />
  <path
     style="fill:#6c6c6c;fill-opacity:1;stroke:#6c6c6c;stroke-width:1.29545236;stroke-opacity:1"
     d="m 562.84579,1371.9725 c -6.02066,-0.2245 -11.64604,-0.9886 -12.50079,-1.6979 -1.14804,-0.9528 -1.67751,-15.2385 -2.02651,-54.6764 l -0.47249,-53.3864 -3.36601,-7.125 c -4.0023,-8.4722 -11.24145,-15.9965 -19.26682,-20.026 -5.46545,-2.7442 -8.0108,-2.9809 -40.75011,-3.7893 -25.34654,-0.6259 -35.197,-1.2975 -35.92899,-2.4497 -0.55466,-0.8729 -1.01734,-7.2064 -1.02824,-14.0744 -0.0156,-10.0054 0.43282,-13.0462 2.25799,-15.3002 l 2.27779,-2.8129 131.69421,0.4024 c 72.43178,0.2213 132.17967,0.8877 132.77307,1.4807 1.27288,1.272 1.47443,30.0424 0.21928,31.3014 -0.47285,0.4743 -22.23429,1.1983 -48.3587,1.609 l -47.49902,0.7466 -2.16391,3.3007 c -1.93637,2.9535 -2.20495,10.2297 -2.5539,69.1698 -0.29468,49.7905 -0.76897,65.9848 -1.94312,66.3429 -2.41275,0.7359 -39.14453,1.4401 -51.36373,0.9847 z"
     id="path122"
     inkscape:connector-curvature="0" />
  <path
     style="fill:#6c6c6c;fill-opacity:1;stroke:#6c6c6c;stroke-width:1.29545236;stroke-opacity:1"
     d="m 770.76884,1371.9472 c -6.47046,-0.211 -12.40954,-1.0569 -13.44299,-1.9146 -1.57732,-1.3091 -1.76836,-12.3935 -1.2902,-74.8636 l 0.56124,-73.327 3.44019,-5.8703 c 3.79035,-6.4677 10.37739,-12.7761 16.83515,-16.123 3.81524,-1.9774 12.88302,-2.171 100.70404,-2.1511 94.56198,0.021 96.6812,0.077 104.93163,2.7495 23.8431,7.7232 40.6387,25.2881 44.0147,46.0305 3.9106,24.028 -13.0915,48.5962 -40.49801,58.5199 -4.36793,1.5816 -8.12705,3.4314 -8.35349,4.1107 -0.22632,0.6793 2.66389,2.8799 6.42278,4.8902 23.43032,12.5311 36.74432,27.4219 41.77012,46.7174 1.6074,6.1708 1.6723,7.9429 0.3399,9.2752 -1.1932,1.1933 -9.669,1.8248 -30.768,2.2923 -16.01665,0.3549 -30.64332,0.3114 -32.5036,-0.097 -2.86561,-0.6288 -3.62286,-1.8164 -4.95561,-7.7717 -5.31779,-23.7625 -26.3882,-45.1496 -50.72658,-51.4889 -8.28213,-2.1572 -60.96107,-3.9075 -73.71927,-2.4493 l -8.42046,0.9624 -0.64773,29.3662 c -0.35623,16.1514 -0.93918,29.6268 -1.2954,29.9454 -0.89789,0.8026 -38.29106,1.6567 -52.39841,1.1966 z m 173.47473,-95.8395 c 3.69452,-2.03 8.10235,-5.9214 10.36365,-9.1495 3.36173,-4.7993 3.93475,-6.794 3.93475,-13.697 0,-9.9367 -4.13919,-17.0652 -13.27233,-22.8572 l -6.01892,-3.8172 h -49.59515 c -55.41061,0 -57.57844,0.2921 -62.6124,8.4373 -2.40865,3.8973 -2.61822,6.0417 -2.29196,23.4544 l 0.35917,19.1649 3.23858,0.8993 c 1.78135,0.4947 27.13979,0.9439 56.35221,0.9983 l 53.11356,0.099 z"
     id="path124"
     inkscape:connector-curvature="0" />
  <path
     style="fill:#6c6c6c;fill-opacity:1;stroke:#6c6c6c;stroke-width:1.29545236;stroke-opacity:1"
     d="m 1147.0303,1373.4526 c -28.1675,-4.8465 -44.8987,-12.5387 -62.286,-28.6363 -16.981,-15.7215 -25.7556,-34.4189 -26.8224,-57.1548 -0.7646,-16.294 0.8311,-24.4768 7.4916,-38.4166 13.791,-28.8637 46.3938,-49.9394 83.0762,-53.7037 16.5707,-1.7004 105.343,-1.7127 121.4447,-0.017 16.6816,1.757 25.9919,4.3321 39.8726,11.0278 31.4416,15.1669 51.0733,41.4723 53.1749,71.2509 2.9687,42.0668 -25.8806,78.3964 -73.6767,92.7804 -9.1743,2.761 -11.6522,2.8658 -74.2636,3.1413 -35.625,0.1568 -66.23,0.034 -68.0113,-0.2721 z m 80.3194,-23.7182 c 22.9536,-1.7786 35.8316,-7.4913 50.4336,-22.3727 28.7918,-29.3424 20.5433,-79.5663 -16.2761,-99.1023 -14.9329,-7.9233 -20.1439,-8.8044 -51.6475,-8.7325 -31.504,0.072 -36.6012,1.044 -52.4657,10.0048 -40.0209,22.6052 -42.4909,79.4837 -4.6251,106.5042 12.8121,9.1425 22.2794,12.5025 38.3068,13.5956 19.9189,1.3583 20.0677,1.3587 36.274,0.1029 z"
     id="path126"
     inkscape:connector-curvature="0" />
  <path
     style="fill:#6c6c6c;fill-opacity:1;stroke:#6c6c6c;stroke-width:1.29545236;stroke-opacity:1"
     d="m 1419.6748,1369.6159 c -7.4456,-2.6436 -13.6914,-8.2452 -18.1316,-16.2619 -6.2568,-20.0196 -3.1009,-55.851 -3.8428,-79.4832 0,-39.8999 0.4189,-73.5655 0.9309,-74.8123 0.877,-2.1357 7.7664,-2.2671 118.8898,-2.2671 H 1635.48 l 1.2634,3.323 c 1.8223,4.793 1.6054,24.3167 -0.2911,26.2133 -1.1764,1.1763 -21.4837,1.5545 -83.4627,1.5545 h -81.9081 l -2.6849,3.4135 c -2.3444,2.9803 -2.685,5.2095 -2.685,17.5736 0,7.7884 0.6035,15.2881 1.3411,16.6663 1.2995,2.4282 3.4339,2.5058 69.0476,2.5058 50.9334,0 68.0916,0.3851 69.2611,1.5544 1.6253,1.6253 2.2338,22.3724 0.7682,26.1918 -0.7033,1.8328 -8.0161,2.0491 -69.2611,2.0491 -66.3733,0 -68.516,0.077 -69.8158,2.5057 -0.7376,1.3782 -1.3411,9.8311 -1.3411,18.7841 0,14.551 0.2749,16.5533 2.5909,18.8693 2.5374,2.5372 4.3182,2.5908 86.1475,2.5908 h 83.5568 v 13.0397 c 0,7.1719 -0.6035,14.1673 -1.341,15.5455 -1.3096,2.447 -3.8041,2.5033 -106.551,2.4034 -87.8621,-0.085 -106.0723,-0.4084 -110.44,-1.9593 z"
     id="path132"
     inkscape:connector-curvature="0"
     sodipodi:nodetypes="ccccscccsccscsccscscscsccc" />
  <path
     style="fill:#6c6c6c;fill-opacity:1;stroke:#6c6c6c;stroke-width:1.29545236;stroke-opacity:1"
     d="m 1689.5198,1371.9848 c -9.6981,-0.3494 -11.5122,-0.7732 -12.6846,-2.964 -2.1683,-4.0514 -1.1373,-167.6904 1.0704,-169.8984 1.3286,-1.3288 16.3852,-1.7685 71.4889,-2.088 80.6758,-0.4677 106.3176,0.6728 119.8505,5.3306 32.0108,11.0179 53.0151,30.7641 62.9708,59.199 2.8311,8.0862 2.9661,10.375 3.3992,57.6477 0.2573,28.069 -0.053,49.9729 -0.7212,50.9623 -1.5303,2.2651 -60.6687,2.4665 -62.924,0.2143 -0.9691,-0.9679 -1.6515,-17.7798 -2.1194,-52.2111 -0.6667,-49.0558 -0.791,-51.0371 -3.6565,-58.2352 -5.2405,-13.1636 -15.4998,-23.952 -28.3852,-29.8489 -5.7945,-2.6519 -8.3761,-2.8317 -46.9386,-3.2707 l -40.8067,-0.4646 -2.8157,3.0293 c -2.8058,3.0186 -2.8173,3.2717 -3.2386,71.9051 -0.2326,37.8816 -0.7144,69.1345 -1.0707,69.4507 -0.9233,0.8199 -39.9483,1.727 -53.4186,1.2419 z"
     id="path136"
     inkscape:connector-curvature="0" />
  <path
     style="fill:#6c6c6c;fill-opacity:1;stroke:#6c6c6c;stroke-width:1.29545236;stroke-opacity:1"
     d="m 409.76916,1013.0817 c -6.64365,-5.9361 -7.65292,-13.72594 -8.52269,-65.78284 l -0.75956,-45.4589 3.4316,-11.9631 c 8.89358,-31.0046 20.77495,-50.399 50.57722,-82.5589 59.29482,-63.9856 153.74717,-158.5773 213.24518,-213.5598 121.18279,-111.986 212.14886,-177.2155 273.22321,-195.9218 9.57377,-2.9324 13.32798,-3.3869 27.29377,-3.3042 13.4733,0.08 18.08851,0.6596 27.47765,3.4532 79.85676,23.7601 218.12606,134.44 401.55546,321.4319 43.407,44.2498 82.8277,85.4036 96.17,100.3976 16.2332,18.2427 30.3883,42.5115 37.7794,64.7725 3.5356,10.6486 3.6721,12.0549 4.1447,42.6857 0.5804,37.626 -1.2781,71.2736 -4.3626,78.98264 -2.4078,6.0176 -7.2843,10.4678 -11.4707,10.4678 -4.6109,0 -12.7668,-6.0113 -44.7721,-32.99974 -163.7427,-138.0757 -316.4287,-244.0012 -413.5303,-286.8853 -64.16228,-28.3368 -99.06396,-31.5333 -150.80182,-13.8117 -51.49324,17.6378 -115.07507,52.3528 -195.45059,106.7142 -77.34116,52.3089 -169.34413,122.891 -257.44917,197.5075 -36.73088,31.10754 -39.93613,32.84054 -47.77866,25.83324 z M 1502.4934,960.26546 c 1.7181,-4.4773 0.7738,-52.8962 -1.198,-61.4281 -2.3869,-10.3281 -14.1302,-34.2891 -21.7538,-44.3867 -19.2318,-25.4726 -146.5104,-155.8907 -214.0301,-219.3092 -80.0252,-75.1647 -147.8547,-131.2383 -202.0378,-167.0215 -33.819,-22.3345 -58.0394,-34.3256 -80.56587,-39.8867 -14.94162,-3.6886 -14.63759,-4.1636 -14.69053,22.949 -0.0642,32.7668 -2.01876,59.6883 -5.0417,69.4372 -3.18472,10.2703 -9.11831,17.5871 -19.25049,23.7384 -4.0732,2.4727 -19.93927,10.0311 -35.25801,16.7961 -141.1571,62.3378 -280.75317,149.7085 -408.66847,255.7782 -43.84353,36.3558 -54.73569,48.7163 -63.53903,72.1045 -3.07381,8.1664 -3.22358,9.876 -3.22358,36.7872 0,31.2084 0.69233,34.5067 6.65921,31.724 1.68118,-0.7841 13.8413,-10.342 27.02251,-21.2397 206.18876,-170.4698 370.16518,-273.3956 467.65841,-293.5429 20.14995,-4.1639 44.92053,-4.6425 62.66939,-1.2106 35.20246,6.8068 84.69916,26.8665 136.10606,55.1603 91.9047,50.5831 220.1752,142.3833 342.7236,245.2792 13.1812,11.0674 24.3407,20.1671 24.7989,20.2214 0.4582,0.054 1.1868,-0.8231 1.6193,-1.9501 z"
     id="path138"
     inkscape:connector-curvature="0" />
  <path
     style="fill:#6c6c6c;fill-opacity:1;stroke:#6c6c6c;stroke-width:1.29545236;stroke-opacity:1"
     d="m 410.26262,619.75876 c -2.05721,-1.7311 -4.44849,-5.3745 -5.31395,-8.0967 -2.69531,-8.4775 -4.31391,-41.4063 -3.78583,-77.0157 0.49328,-33.258 0.60091,-34.4344 4.07566,-44.5242 8.58937,-24.9415 21.36963,-45.8914 41.88507,-68.659 37.7037,-41.843 144.68359,-150.3959 194.03261,-196.8856 C 774.63125,98.836059 870.62338,27.630659 936.51934,5.4817593 c 13.47763,-4.53009996 15.16262,-4.79189996 31.09082,-4.83209996 14.5679,-0.037 18.32708,0.41489996 27.85224,3.34619996 62.7514,19.3110997 157.9659,88.1645997 281.6675,203.6854007 61.8125,57.7247 155.9443,152.4422 207.3102,208.6001 25.7848,28.1903 37.8597,47.4027 46.8154,74.4885 3.5155,10.6323 3.6577,12.1016 4.1296,42.6856 0.5804,37.6261 -1.2781,71.2737 -4.3626,78.9827 -2.4078,6.0176 -7.2843,10.4678 -11.4707,10.4678 -4.0542,0 -12.6372,-5.8125 -28.0329,-18.9841 -167.5438,-143.3399 -333.2216,-258.9035 -434.1013,-302.7946 -75.9722,-33.0542 -114.95815,-30.9668 -201.2164,10.7741 -65.16735,31.5348 -146.95155,84.5107 -246.78362,159.8546 -52.09284,39.3147 -116.47159,91.0566 -164.42074,132.1468 -15.45872,13.2474 -23.97233,19.0032 -28.10826,19.0032 -1.58701,0 -4.56876,-1.4162 -6.62596,-3.1472 z m 1092.23078,-53.3109 c 1.7136,-4.4655 0.7756,-52.8907 -1.1856,-61.2099 -3.7213,-15.785 -14.9822,-36.7989 -28.1728,-52.5733 -24.4984,-29.297 -136.8737,-144.1437 -195.9117,-200.2204 -118.2504,-112.3191 -213.3594,-186.159401 -271.3205,-210.646801 -14.74234,-6.2284 -31.9806,-10.5556 -34.8517,-8.7486 -1.87171,1.1781 -2.25247,5.6931 -2.98368,35.3816 -0.96458,39.159901 -1.73944,48.131401 -5.09557,58.997401 -4.84609,15.6898 -13.40928,22.0181 -53.14746,39.2763 -136.28444,59.1882 -283.59545,151.3118 -408.99575,255.7727 -46.16684,38.458 -53.95084,47.0734 -63.25342,70.0089 l -4.2956,10.5909 -0.022,28.5762 c -0.0238,31.0484 0.70452,34.8014 6.25791,32.2502 1.47938,-0.6796 19.47181,-14.9962 39.98331,-31.8149 214.4719,-175.8585 378.66038,-275.2294 472.84829,-286.1792 59.52117,-6.9198 147.68877,30.1382 278.88747,117.22 70.9831,47.1143 137.7788,96.9621 218.9314,163.3821 16.7438,13.7042 34.8153,28.7189 40.159,33.3661 5.3438,4.6472 10.0908,8.4878 10.5489,8.5346 0.4582,0.047 1.1869,-0.8369 1.6193,-1.9639 z"
     id="path140"
     inkscape:connector-curvature="0" />
  <path
     style="fill:#6c6c6c;fill-opacity:1;stroke:#6c6c6c;stroke-width:1.53099072;stroke-opacity:1"
     d="m 1463.2326,1169.9013 c -8.6723,-3.6283 -15.3663,-10.9988 -15.3663,-16.9192 0,-1.6586 2.5836,-5.5732 5.7412,-8.6992 4.5136,-4.4684 7.7866,-6.1111 15.3067,-7.6835 13.2371,-2.7674 21.7936,-1.2247 37.8952,6.8329 7.5784,3.7921 14.3347,6.8948 15.014,6.8948 0.679,-3e-4 7.5687,-3.0966 15.3099,-6.8806 9.1247,-4.4607 17.0829,-7.2167 22.6278,-7.8365 15.3606,-1.7169 33.3358,6.0266 35.6812,15.3714 2.3767,9.4699 -7.1278,18.5367 -21.3958,20.4105 -14.6532,1.9246 -25.0456,0.028 -38.7095,-7.0869 -13.7442,-7.1508 -12.3714,-7.2488 -31.622,2.2632 -14.6287,7.2287 -28.4509,8.3664 -40.4824,3.3331 z"
     id="path44-9"
     inkscape:connector-curvature="0" />
</svg>
