<!-- Generator: Adobe Illustrator 22.0.0, SVG Export Plug-In  -->
<svg version="1.1"
	 xmlns="http://www.w3.org/2000/svg" xmlns:xlink="http://www.w3.org/1999/xlink" xmlns:a="http://ns.adobe.com/AdobeSVGViewerExtensions/3.0/"
	 x="0px" y="0px" width="37.1px" height="40.3px" viewBox="0 0 37.1 40.3"
	 style="overflow:scroll;enable-background:new 0 0 37.1 40.3;" xml:space="preserve">
<style type="text/css">
	.st0{fill:#FFFFFF;}
</style>
<defs>
</defs>
<g>
	<path class="st0" d="M22.1,0.8c-2.2-1.3-2-1.4-4.3,3.4c-4,8.7-3.7,8.3-7,7.5c-1.6-0.4-3.4-1.1-4.1-1.5C6.1,9.8,4.5,9.6,3.1,9.7
		c-3.7,0.4-4.3,3.1-0.9,4.8c1,0.5,3.1,2.1,4.8,3.6c3.7,3.2,3.8,4.9,0.3,9.3c-2.7,3.4-3.2,5.2-1.9,7.2c0.7,1.2,1,1.1,3.2-1.2
		c1.3-1.3,3.5-3,4.9-3.8l2.5-1.3l5.5,6c5.5,6.1,7,7,7.9,5.1c0.7-1.6,0.7-4.1,0.1-4.6c-0.6-0.4-2.5-6.2-3.1-9.4
		c-0.3-1.7,0-1.9,4.3-3.4c2.5-0.9,5-1.8,5.5-2.2l0,0c0.5-0.3,0.9-1.3,1-2.2c0.1-2.2-2-3.1-8.2-3.4l-5-0.3l0.1-2.9c0-1.6,0-3.2,0-3.5
		c-0.1-0.4-0.1-1.8,0-3.2C24,2.3,23.7,1.7,22.1,0.8z"/>
</g>
</svg>
