<?xml version="1.0" encoding="utf-8"?>
<!-- Generator: Adobe Illustrator 22.0.0, SVG Export Plug-In . SVG Version: 6.00 Build 0)  -->
<svg version="1.1" id="Capa_1" xmlns="http://www.w3.org/2000/svg" xmlns:xlink="http://www.w3.org/1999/xlink" x="0px" y="0px"
	 viewBox="0 0 533 533" style="enable-background:new 0 0 533 533;" xml:space="preserve">
<style type="text/css">
	.st0{fill:#4d4d4e;stroke:#4d4d4e;stroke-width:19;stroke-miterlimit:10;}
</style>
<g>
	<g>
		<path class="st0" d="M456.6,75.1H76.5c-33.9,0-61.5,27.6-61.5,61.5v259.8c0,33.9,27.6,61.5,61.5,61.5h380
			c33.9,0,61.5-27.6,61.5-61.5V136.7C518.1,102.8,490.5,75.1,456.6,75.1z M490,396.4c0,18.4-15,33.4-33.4,33.4H76.5
			c-18.4,0-33.4-15-33.4-33.4V136.7c0-18.4,15-33.4,33.4-33.4h380c18.4,0,33.4,15,33.4,33.4v259.7H490z"/>
		<path class="st0" d="M332.2,263.3l123-110.3c5.7-5.2,6.2-14.1,1-19.9c-5.2-5.7-14.1-6.2-19.9-1L266.8,284.3l-33.1-29.6
			c-0.1-0.1-0.2-0.2-0.2-0.3c-0.7-0.7-1.5-1.4-2.3-2L96.5,131.9c-5.8-5.2-14.7-4.7-19.9,1.1c-5.2,5.8-4.7,14.7,1.1,19.9l124.5,111.3
			l-124,116c-5.6,5.3-5.9,14.2-0.6,19.9c2.8,2.9,6.6,4.5,10.3,4.5c3.4,0,6.9-1.2,9.6-3.7l125.8-117.7l34.1,30.5
			c2.7,2.4,6,3.5,9.4,3.5c3.3,0,6.8-1.2,9.4-3.6l35.1-31.4L436.4,401c2.7,2.6,6.2,3.9,9.7,3.9c3.7,0,7.4-1.5,10.2-4.4
			c5.3-5.6,5.1-14.6-0.5-19.9L332.2,263.3z"/>
	</g>
</g>
</svg>
