<!-- Generator: Adobe Illustrator 22.0.0, SVG Export Plug-In  -->
<svg version="1.1"
	 xmlns="http://www.w3.org/2000/svg" xmlns:xlink="http://www.w3.org/1999/xlink" xmlns:a="http://ns.adobe.com/AdobeSVGViewerExtensions/3.0/"
	 x="0px" y="0px" width="61.2px" height="60.9px" viewBox="0 0 61.2 60.9" style="enable-background:new 0 0 61.2 60.9;"
	 xml:space="preserve">
<style type="text/css">
	.st0{fill:#FF3351;}
	.st1{fill:#D62E40;}
	.st2{fill:#FF475A;}
	.st3{fill:#C90B26;}
	.st4{fill:#FF4A65;}
	.st5{fill:#FFB93B;}
	.st6{fill:#FFCE76;}
	.st7{fill:#FF3636;}
	.st8{fill:#FF2929;}
	.st9{fill:#FFCF7B;}
	.st10{fill:#FFC95C;}
	.st11{fill:#B70404;}
	.st12{fill:#0C2661;}
	.st13{fill:#113170;}
	.st14{fill:#F1F2F2;}
	.st15{opacity:0.55;}
	.st16{fill:#FF6178;}
</style>
<defs>
</defs>
<g>
	<g>
		<path class="st0" d="M3.8,49.5l3.8,3.8l31.7-31.7l-4-4C30,21.7,16.8,31.9,11.2,37.4C8.2,40.3,5.7,45,3.8,49.5z"/>
		<path class="st1" d="M2.4,48.1l1.4,1.4c1.9-4.4,4.4-9.1,7.4-12.1c5.6-5.5,18.8-15.7,24.2-19.8l-2.2-2.2L16.3,28.5
			C9.8,33.5,5,40.4,2.4,48.1z"/>
		<path class="st0" d="M0,60.9L5.9,55l-3.1-3.1c-1.4,3.5-2.3,6.6-2.7,8.2L0,60.9z"/>
		<path class="st1" d="M0.4,57.4l-0.3,2.8c0.5-1.6,1.4-4.7,2.7-8.2l-1.2-1.2C1,52.9,0.6,55.1,0.4,57.4z"/>
	</g>
	<g>
		<g>
			<g>
				<g>
					<path class="st2" d="M12.9,58.6c7.7-2.6,14.5-7.4,19.6-13.9l13.1-16.9l-6.2-6.2L7.6,53.3L12.9,58.6z"/>
				</g>
			</g>
			<g>
				<g>
					<polygon class="st2" points="7.6,53.3 39.4,21.6 39.4,21.5 7.6,53.3 					"/>
				</g>
			</g>
			<g>
				<g>
					<path class="st3" d="M5.9,55l1.7-1.7l-5.2-5.2c-0.3,0.9-0.6,1.7-0.8,2.6L5.9,55z"/>
				</g>
			</g>
			<g>
				<g>
					<path class="st1" d="M5.9,55l4.4,4.4c0.9-0.2,1.8-0.5,2.6-0.8l-5.3-5.3L5.9,55z"/>
				</g>
			</g>
			<g>
				<g>
					<polygon class="st3" points="7.6,53.3 7.6,53.3 5.9,55 5.9,55 					"/>
				</g>
			</g>
			<g>
				<g>
					<path class="st4" d="M3.6,60.6c2.3-0.2,4.5-0.7,6.7-1.2L5.9,55L0,60.9L3.6,60.6z"/>
				</g>
			</g>
		</g>
		<g>
			<g>
				<g>
					<g>
						<path class="st5" d="M43.5,17.6l-2.1-2.1c-2.3-2.3-6-2.4-8.2-0.1l0,0l6.2,6.2L43.5,17.6z"/>
					</g>
				</g>
				<g>
					<g>
						<path class="st2" d="M23,27.3L21.5,17c-0.2-1.7,0.1-3.4,1-4.9l6.1-10.3c0.7-1.1,2.2-1.3,3.2-0.4l0,0c0.6,0.6,0.8,1.4,0.6,2.1
							l-2.6,8.3l5.5,5.5L23,27.3z"/>
					</g>
				</g>
				<g>
					<g>
						<path class="st3" d="M24.5,26.2l-2.1-10.1c-0.2-1.7,0.1-3.4,1-4.9L29.4,1c0.7-1.1,2.2-1.3,3.2-0.4l0,0
							c0.6,0.6,0.8,1.4,0.6,2.1L30.6,11l4.8,6.5L24.5,26.2z"/>
					</g>
				</g>
			</g>
			<g>
				<g>
					<g>
						<path class="st6" d="M43.4,17.5l2.1,2.1c2.3,2.3,2.4,6,0.1,8.2l0,0l-6.2-6.2L43.4,17.5z"/>
					</g>
				</g>
			</g>
			<g>
				<g>
					<path class="st7" d="M57.1,3.8L44.9,16l0,0c1.8,1.8,5.4,1.3,8.2-1.5C56.1,11.5,57.1,3.8,57.1,3.8z"/>
				</g>
			</g>
			<g>
				<g>
					<path class="st8" d="M57.1,3.8L44.9,16l0,0c-1.8-1.8-1.3-5.4,1.5-8.2C49.4,4.8,57.1,3.8,57.1,3.8z"/>
				</g>
			</g>
			<g>
				<g>
					<path class="st9" d="M53.6,7.5l0-0.2l-8.3,8.3l0,0c1.3,1.3,3.8,0.8,5.6-1l0,0C52.6,12.4,53.6,9.8,53.6,7.5z"/>
				</g>
			</g>
			<g>
				<g>
					<path class="st10" d="M53.4,7.3l0.2,0l-8.3,8.3l0,0c-1.3-1.3-0.8-3.8,1-5.6l0,0C48.5,8.3,51.1,7.3,53.4,7.3z"/>
				</g>
			</g>
		</g>
	</g>
	<g>
		<path class="st11" d="M18.8,42.3c1.7,1.7,1.7,4.3,0.1,5.9c-1.6,1.6-4.3,1.6-5.9-0.1c0,0,0,0,0,0l-1.1,1.1c0,0,0,0,0,0
			c2.3,2.3,5.9,2.4,8.2,0.1c2.2-2.2,2.1-5.9-0.1-8.2c0,0,0,0,0,0L18.8,42.3C18.7,42.3,18.8,42.3,18.8,42.3z"/>
		<path class="st3" d="M11.7,41.1c-2.2,2.2-2.1,5.8,0.1,8.1l1.1-1.1c-1.6-1.7-1.7-4.3-0.1-5.9c1.6-1.6,4.2-1.6,5.9,0.1l1.1-1.1
			C17.5,38.9,13.9,38.9,11.7,41.1z"/>
		<path class="st12" d="M18.9,48.3c1.6-1.6,1.6-4.3-0.1-5.9c0,0,0,0,0,0l-5.8,5.8c0,0,0,0,0,0C14.6,49.8,17.3,49.9,18.9,48.3z"/>
		<path class="st13" d="M12.8,42.2c-1.6,1.6-1.6,4.2,0.1,5.9l5.8-5.8C17.1,40.6,14.4,40.6,12.8,42.2z"/>
	</g>
	<path class="st14" d="M15.8,47.3c0.2-0.2,0.6-0.2,0.8,0c0.2,0.2,0.2,0.6,0,0.8c-0.2,0.2-0.6,0.2-0.8,0
		C15.5,47.8,15.5,47.5,15.8,47.3z"/>
	<g>
		<g class="st15">
			<path class="st16" d="M45.3,26.7c0,0-2.1,2.6-5.4,6.5c-1.6,1.9-3.5,4.2-5.6,6.6c-1,1.2-2.1,2.4-3.2,3.7c-1.1,1.2-2.3,2.5-3.4,3.7
				c-1.1,1.2-2.4,2.4-3.5,3.6c-1.2,1.2-2.6,2.1-3.9,3c-2.7,1.6-5.5,2.7-7.9,3.5c-2.4,0.8-4.5,1.2-5.9,1.5C4.9,58.9,4,59,4,59
				s0.8-0.1,2.3-0.4c1.4-0.3,3.5-0.8,5.9-1.7c2.4-0.8,5.1-2,7.7-3.7c1.3-0.9,2.6-1.8,3.7-3c1.1-1.2,2.3-2.4,3.4-3.7
				c1.1-1.3,2.2-2.5,3.3-3.8c1.1-1.3,2.1-2.5,3.1-3.7c2-2.5,3.8-4.8,5.4-6.7c3.1-4,5.2-6.7,5.2-6.7L45.3,26.7z"/>
		</g>
	</g>
	<g>
		<g>
			<path class="st0" d="M33.7,38L44,39.5c1.7,0.2,3.4-0.1,4.9-1l10.3-6.1c1.1-0.7,1.3-2.2,0.4-3.2l0,0c-0.6-0.6-1.4-0.8-2.1-0.6
				l-8.3,2.6l-5.5-5.5L33.7,38z"/>
		</g>
	</g>
	<g>
		<g>
			<path class="st1" d="M34.8,36.9l10.3,1.5c1.7,0.2,3.5-0.1,4.9-1l10.3-6.1c1.1-0.7,1.3-2.2,0.4-3.2l0,0c-0.6-0.6-1.4-0.8-2.1-0.6
				l-8.3,2.6l-6.6-4.5L34.8,36.9z"/>
		</g>
	</g>
</g>
</svg>
