<!-- Generator: Adobe Illustrator 22.0.0, SVG Export Plug-In  -->
<svg version="1.1"
	 xmlns="http://www.w3.org/2000/svg" xmlns:xlink="http://www.w3.org/1999/xlink" xmlns:a="http://ns.adobe.com/AdobeSVGViewerExtensions/3.0/"
	 x="0px" y="0px" width="164.5px" height="178.9px" viewBox="0 0 164.5 178.9"
	 style="overflow:scroll;enable-background:new 0 0 164.5 178.9;" xml:space="preserve">
<style type="text/css">
	.st0{fill:#08FDD8;}
</style>
<defs>
</defs>
<path class="st0" d="M139,107.3c0,0-4.8-3.2-7.5,1.3c-2.2,3.5-14,17.2-14,17.2s-25,31.2-63,27S9.3,109.1,9,88.5
	C8.8,69.5,23.3,32,47.8,25.5s42,6.3,42,6.3C79.3,33.3,72,35.3,72,35.3S40,45.5,38.8,83S76,134.3,76,134.3s9.8,3.5,11.3-2.5
	c1.5-6-6.2-8.2-6.2-8.2C66.2,119,50.8,108,50.5,83.3s19.7-38,41.2-40.5s36,25,38,28.5s7.3,1.5,7.3,1.5s21.3-19.8,24.8-22.5
	s2.6-6.5,2.6-6.5s-4.3-7-17.4-19.7c-13-12.6-53.5-35.8-93-17C13,26.5,0,61.3,0,94.3c0,31,26.5,79.7,78.3,84.2s78-33,83-38.5
	s2.5-9.5,2.5-9.5L139,107.3z M151.3,44.3l-15.5,14C110,19.5,70,12.5,70,12.5C119.5,0.5,151.3,44.3,151.3,44.3z M65.8,164.3
	c0,0,40.5-0.5,70.5-44.2l15,14.7C151.3,134.8,121.3,179.3,65.8,164.3z"/>
</svg>
