<!-- Generator: Adobe Illustrator 22.0.0, SVG Export Plug-In  -->
<svg version="1.1"
	 xmlns="http://www.w3.org/2000/svg" xmlns:xlink="http://www.w3.org/1999/xlink" xmlns:a="http://ns.adobe.com/AdobeSVGViewerExtensions/3.0/"
	 x="0px" y="0px" width="271.3px" height="307.8px" viewBox="0 0 271.3 307.8"
	 style="overflow:scroll;enable-background:new 0 0 271.3 307.8;" xml:space="preserve">
<style type="text/css">
	.st0{fill:#FFFFFF;}
</style>
<defs>
</defs>
<g>
	<path class="st0" d="M32.1,71.6c-3.6-1.1-14.1-2.4-15.7-2c-1.7,0.5-3.1,2.5-3.7,5.2c-0.3,1.5,0.4,2.7,5.7,8.2
		c3.3,3.5,8.2,9,10.9,12.2c2.7,3.1,8.6,9.7,13.1,14.5c9.3,9.8,15.5,17.2,15.5,18.7c0,0.5,0.6,1.2,1.3,1.6c0.7,0.3,3.1,2.8,5.3,5.4
		c2.2,2.6,5.1,5.8,6.3,7.1c1.2,1.3,2.3,2.4,2.3,2.6c0.1,2.8-57.5,63.9-67.4,71.6c-5.9,4.6-6.7,6.4-4.8,10.2c1.5,3,2.4,3.2,7.3,2
		c4.6-1.2,9.8-1.9,19.2-2.6c3.5-0.3,8.6-0.8,11.4-1.3c2.8-0.4,8.4-1,12.4-1.2c4-0.2,12.2-0.9,18-1.4c5.9-0.5,16-1.2,22.4-1.6
		l11.7-0.6l2.7,7.5c4.8,13.1,7.7,21.9,9.6,29.1c1,3.9,3.1,10.7,4.6,15.3c1.5,4.6,3.5,10.7,4.4,13.7c4.9,16.2,6.4,20,8.6,21.2
		c2,1.1,2.2,1.1,4.6,0c2.7-1.3,5.1-5.5,6.9-12c0.5-2,1.7-5.1,2.6-7c0.9-1.9,2.5-6.3,3.7-9.8c1.9-6,7.8-21.7,11-29.5
		c2.9-6.9,5.2-14.5,7.5-24.3c2.7-11.8,3.4-13.8,4.5-13.9c0.4,0,5.6,2.4,11.4,5.3c5.8,2.9,11.5,5.8,12.6,6.3c1.1,0.5,5.2,2.5,9.2,4.5
		c3.9,2,11.4,5.3,16.6,7.4c5.2,2.1,11.6,4.8,14.2,6c2.6,1.2,6.6,2.8,9,3.6l4.2,1.3l1.9-1.5c3.2-2.5,3.5-4.3,1.7-7.9
		c-1.9-3.7-7.2-11.5-11.2-16.7c-1.6-2-4.1-5.6-5.6-7.9c-1.5-2.4-3.9-5.6-5.2-7.3c-1.4-1.6-3.5-4.7-4.8-6.9c-1.3-2.2-3.5-5.3-4.9-6.9
		c-3.4-3.9-8.6-11.5-12-17.8c-1.5-2.8-3.8-6.9-5.1-9.2l-2.3-4.2l1.2-1.8c0.7-1,3.6-4.4,6.5-7.6c2.9-3.2,6.6-8.1,8.3-10.9
		c1.7-2.8,4.1-6.4,5.5-7.9c1.4-1.5,4.9-6,7.8-9.9c6.6-8.8,20.9-26.5,29.2-36.2c3.4-4,6.9-8.2,7.6-9.3c0.8-1.1,1.4-3,1.4-4.2
		c0-1.8-0.3-2.2-1.8-2.6c-3-0.7-13.1,0.5-18.3,2.1c-5.8,1.8-22.2,5.7-27,6.4c-1.8,0.3-7,1.4-11.4,2.4c-6.9,1.6-10.4,1.9-23.8,2.4
		c-8.6,0.3-16.1,0.7-16.6,0.9c-0.8,0.3-3.3-4.7-6.8-13.3c-1.3-3.2-9.9-23.1-11.3-25.9c-0.6-1.3-2.1-4.6-3.4-7.3
		c-1.2-2.7-2.8-6.2-3.5-7.6c-0.7-1.5-1.8-4.5-2.5-6.7c-4.1-13.6-5.1-16.3-6.6-18.8C137,0.5,136.3,0,134.8,0
		c-3.1,0.1-5.1,2.6-7.2,9.2c-1.1,3.3-3.5,10.8-5.4,16.6s-4.1,12.9-4.8,15.9c-1.4,5.6-2.3,8.4-7.2,24.7c-1.6,5.4-3.7,12.4-4.6,15.6
		l-1.6,5.8l-5.6-1.7c-18.5-5.7-30.2-8.3-53.8-12.2C38.9,73,33.3,71.9,32.1,71.6z M28.7,82.1c-1.1-1-2-1.9-1.9-2c0.1-0.1,1,0,2,0.1
		c1.4,0.2,1.9,0.7,1.9,2l0,1.7L28.7,82.1z M30.3,211.9c-1.5,0-1.1-1.4,0.7-2.6c1.1-0.7,1.3-0.7,1.3,0.4
		C32.4,211.2,31.9,211.8,30.3,211.9z M50.4,198c-0.4,0.9-1,2.8-1.3,4.1c-0.6,2.1-0.6,1.7-0.5-2.3c0.1-2.6,0.2-6.5,0.1-8.7
		c-0.1-3.7,0.1-4.3,2.5-7.1c2-2.4,2.6-2.8,2.6-1.7C53.8,183.9,51.2,195.8,50.4,198z M55.6,207.9c-1.2,0-1.5-2.4-0.5-4
		c0.6-0.9,0.6-0.9,0.7,0c0,0.6,0.2,1.7,0.5,2.5C56.5,207.5,56.4,207.9,55.6,207.9z M258.7,74.9c0.4,0,0.7,0.1,0.7,0.3
		c0,0.2-0.3,0.5-0.7,0.7c-0.4,0.2-0.7,0.1-0.7-0.3C258,75.2,258.3,74.9,258.7,74.9z M243.7,89.3c0.1-1.5,0.8-2.7,2.3-3.9h0
		c1.2-0.9,2.1-1.5,2.1-1.1c-0.2,2.1-1.5,4.8-2.9,5.9l-1.6,1.3L243.7,89.3z M231.9,84.7c0.3-1.5,1.9-3.2,2.9-3.2
		c0.9-0.1,0.5,0.9-1,2.9C232.1,86.6,231.4,86.8,231.9,84.7z M232.4,97.7c1.1-0.6,1.3-0.5,1.3,0.4c-0.1,2-1.3,5.6-1.9,5.6
		c-0.3,0-0.6-1.2-0.6-2.6C231.1,99.1,231.4,98.2,232.4,97.7z M222.1,110.5c-0.2-0.6-0.2-1.6,0-2l0,0c0.2-0.5,0.3,0.1,0.3,1.2
		C222.5,110.7,222.3,111.1,222.1,110.5z M222.2,85.6c0.5-0.2,1.2-0.2,1.4,0v0c1.2,1.2,0.1,1.9-1.5,1C221.4,86.1,221.4,86,222.2,85.6
		z M216.6,121.9c0.8-1.9,1.3-2.2,2-1.7c1.3,1,1.2,1.4-1,3.6C215.4,126.1,215,125.4,216.6,121.9z M210.1,90.5
		c0.7-0.5,0.8,1.6,0.2,6.4c-0.4,2.9-0.4,2.8-0.6-1.5C209.5,92.9,209.7,90.7,210.1,90.5z M209.6,103.9c0.4-2,0.4-2,1.2-0.6
		c0.5,0.8,0.8,1.8,0.8,2.3c-0.1,2-1.6,8.8-2,9.1C209.2,115.3,209.1,106.5,209.6,103.9z M203.7,211.4L203.7,211.4
		c0.2-0.2,0.6,0.2,0.9,0.8c0.4,0.9,0.3,1-0.4,0.4C203.7,212.1,203.5,211.6,203.7,211.4z M198.9,94c1.1-1.1,1.1-1.1,1.1,1.5
		c0,2.6-1.1,14.8-1.7,18.8c-0.2,1.1-0.3-2.7-0.4-8.5C197.8,96.7,197.9,95,198.9,94z M194.2,155.9c0.4,0.2,0.7,1,0.7,1.7
		c0,0.7,0.6,1.7,1.4,2.1c0.7,0.4,1.4,1.2,1.4,1.7c0,1.6-1.2,0.9-2.7-1.5C193.5,157.4,193,155.3,194.2,155.9z M187.1,101.8
		c0.8-1.2,0.9-1.2,1.3,0.1c0.2,0.8,0.3,1.5,0.2,1.6c-0.1,0.1-0.2,5.6-0.3,12.2c-0.1,6.6-0.2,12.1-0.4,12.3
		c-0.4,0.4-1.4-11.4-1.6-18.5C186.2,105.2,186.5,102.6,187.1,101.8z M178.9,161.3c-0.4,0-0.7-0.3-0.7-0.7c0-0.4,0.3-0.5,0.7-0.3
		c0.4,0.2,0.7,0.5,0.7,0.7C179.5,161.2,179.2,161.3,178.9,161.3z M181.5,191.8c-0.8,0.9-0.1-3.7,0.8-4.7c0.4-0.4,0.6-0.3,0.5,0.3
		C182.7,189.3,182.1,191.1,181.5,191.8z M176.8,95.2c1.7-2.7,2.5-3.4,4.3-3.6c1.2-0.1,2.2,0,2.2,0.3c0,1.3-1.4,2.9-2.6,3
		c-0.9,0-1.5,0.8-2,2.7c-0.8,3-1,3.1-2.7,1.8C174.7,98.6,174.8,98.3,176.8,95.2z M168.9,177.5c-0.8,6-2.6,8.7-2,2.9
		c0.5-4.8,1.8-12.2,2.3-12.6C169.8,167.2,169.6,171.9,168.9,177.5z M167.2,108.6c0.7,0,1,0.6,0.9,1.8c0,1-0.2,3.6-0.2,5.7
		c-0.2,6-1.4,4.6-1.6-1.8C166.2,109.7,166.4,108.6,167.2,108.6z M156.8,97.3c0.2-0.5,0.3,0.1,0.3,1.2c0,1.1-0.1,1.5-0.3,0.8
		C156.6,98.6,156.6,97.7,156.8,97.3z M153.6,171c0.5-2.5,0.5-2.3,0.6,1.7c0.1,2.4-0.1,5.4-0.3,6.7c-0.4,2-0.5,1.8-0.6-1.7
		C153.1,175.5,153.3,172.5,153.6,171z M149.5,132.7c0.1-1,0.3-0.2,0.3,1.8c0,2-0.1,2.9-0.2,1.9C149.4,135.4,149.4,133.7,149.5,132.7
		z M148.7,154c0.2-2.3,0.3-5.8,0.3-7.8c-0.1-4.1,0.9-5,1.2-1.1c0.1,1.4,0.4,4.5,0.7,6.9c0.4,4,0.4,4.4-1,5.3l-1.5,0.9L148.7,154z
		 M146.5,67.5c0.3,0,0.6,0.6,0.6,1.3s-0.1,1.3-0.2,1.3c-0.1,0-0.4-0.6-0.6-1.3C146.1,68.1,146.2,67.5,146.5,67.5z M144.6,255.9
		c0.1-3.3,0.5-6.5,0.8-7.1c0.8-1.4,0.8,0.1,0.1,7C144.8,262.6,144.3,262.7,144.6,255.9z M140.4,141c0.2-0.2,0.4,0.2,0.4,0.9
		c0,0.8-0.2,0.9-0.4,0.4C140.2,141.8,140.2,141.2,140.4,141z M140.3,146.2c0.8,0,0.8,1.1,0.1,3c-0.5,1.1-0.6,1-0.6-0.8
		C139.6,147.2,139.9,146.2,140.3,146.2z M136.8,122.9l0.4-9.9l0.4,8.4c0.2,4.6,0.5,9.1,0.6,9.9c0.2,1.5-0.7,2.7-1.4,2
		C136.6,133,136.6,128.4,136.8,122.9z M131.8,269.2c0.7,0,0.8,0.9,0.1,5c-0.4,2.6-0.4,2.5-0.6-1.2
		C131.2,270.8,131.4,269.2,131.8,269.2z M124.9,205.2c0.8,0.5,0.8,0.8,0.1,2.7c-0.5,1.1-0.6,1-0.6-0.9
		C124.2,205.7,124.5,205,124.9,205.2z M114,224c0.3,0,0.6,0.6,0.6,1.3c0,0.7-0.1,1.3-0.2,1.3c-0.1,0-0.4-0.6-0.6-1.3
		C113.6,224.6,113.7,224,114,224z M112.5,89.4c0.2-0.6,0.5-1,0.6-1c0.1,0,0.3,0.4,0.3,1c0,0.6-0.3,1-0.6,1
		C112.4,90.5,112.3,90,112.5,89.4z M108.4,126.3c0.1-1,0.3,0,0.3,2.2c0,2.2-0.1,3-0.2,1.8C108.3,129.1,108.3,127.3,108.4,126.3z
		 M108,136.7c0.2-0.5,0.3,0.1,0.3,1.2c0,1.1-0.1,1.5-0.3,0.8C107.9,138,107.9,137.1,108,136.7z M99.7,115.6c0.2-2.8,0.3-6.6,0.4-8.4
		c0.1-4.4,1.4-10.4,2.1-10.5l0,0c0.7,0,0.7,0.3-0.3,6.4c-0.4,2.6-1.2,7.6-1.6,11.1C99.4,120.6,99.4,120.6,99.7,115.6z M98.9,121.8
		c0.2-0.6,0.3-0.1,0.3,1.2c0,1.3-0.1,1.8-0.3,1.2C98.8,123.5,98.8,122.5,98.9,121.8z M98.5,128.5c0.2-0.2,0.4,0.2,0.4,0.9
		c0,0.8-0.2,0.9-0.4,0.4C98.3,129.4,98.3,128.8,98.5,128.5z M90.2,100.1c0.5,0.3,0.6,0,0.2-1.1c-0.5-1.5,0.6-4.7,1.7-4.7
		c0.7,0,0.7,1.7-0.1,4.5c-0.5,2-2.5,3.2-2.6,1.5C89.5,100,89.8,99.8,90.2,100.1z M90.8,102.8c0,0.8-0.2,0.9-0.4,0.4
		c-0.2-0.5-0.2-1.1,0-1.3C90.7,101.7,90.9,102.1,90.8,102.8z M89.6,105.1c0.9,1.3,0.9,2.2,0,1.7c-0.4-0.2-0.7-0.9-0.7-1.5
		C88.9,104.3,89,104.2,89.6,105.1z M87.1,145.7c0.4-1.6,0.6-0.7,1,4.1c0.3,4.1,0.9,6.6,1.6,7.7c0.8,1.1,1.1,2.9,1.2,6.6
		c0,4.6-1.1,17.6-1.5,16.8c-0.1-0.2-0.4-6-0.7-13c-0.3-7-0.9-14.4-1.3-16.4C87,149.4,86.8,146.9,87.1,145.7z M78.5,101.5
		c1.1-6.5,2-10.3,2.5-10.3c1.4,0,1.4,0.8-0.1,6.7c-0.8,3.2-1.6,6.6-1.7,7.8c-0.4,3.1-2,9.2-2.5,9.7
		C76.2,115.9,76.2,115.9,78.5,101.5z M68,96.8c0.7-3.1,1.3-6.4,1.5-7.2c0.2-0.8,0.6-1.5,1-1.5c0.4,0,0.6,0.5,0.6,1.2
		c0,1.5-3.7,13.8-4,13.5C66.9,102.7,67.3,100,68,96.8z M57.3,91.8c0.8-5.3,1.2-6.1,3-5.6c1.4,0.3,1.6,1.6,0.9,4.9
		c-0.6,2.7-3.5,9.4-4.1,9.5C56.4,100.5,56.5,97,57.3,91.8z M56.6,111.7c0.6,0.2,1,0.5,1,0.6c0,0.1-0.4,0.3-1,0.3c-0.6,0-1-0.3-1-0.6
		C55.5,111.6,56,111.5,56.6,111.7z M47.9,87.1c0.2-0.7,0.3-1.7,0.3-2.2c0-0.5,0.3-1,0.6-1c0.9,0,0.8,0.7-0.3,2.7
		C48,87.5,47.7,87.8,47.9,87.1z"/>
</g>
</svg>
